{
	"asset":{
		"version":"2.0",
		"generator":"Created using the official Cinema 4D glTF Exporter 1.000x290161"
	},
	"scenes":[{
		"nodes":[0]
	}],
	"nodes":[{
		"name":"tank",
		"mesh":0,
		"children":[1,
		2,
		3]
	},
	{
		"name":"soap",
		"translation":[0.0,
		-0.4961220920085907,
		0.023907501250505449],
		"rotation":[0.0,
		0.0,
		0.0,
		-1.0],
		"scale":[1.0,
		1.0,
		1.0],
		"mesh":1
	},
	{
		"name":"Cylinder.6",
		"translation":[0.0,
		-3.0999999046325685,
		0.0],
		"rotation":[0.0,
		0.0,
		0.0,
		-1.0],
		"scale":[1.0,
		1.0,
		1.0],
		"mesh":2
	},
	{
		"name":"Null.1",
		"mesh":3
	}],
	"meshes":[{
		"primitives":[{
			"attributes":{
				"POSITION":1,
				"NORMAL":2
			},
			"indices":0,
			"material":0
		}]
	},
	{
		"primitives":[{
			"attributes":{
				"POSITION":4,
				"NORMAL":5
			},
			"indices":3,
			"material":0
		}]
	},
	{
		"primitives":[{
			"attributes":{
				"POSITION":7,
				"NORMAL":8
			},
			"indices":6,
			"material":1
		}]
	},
	{
		"primitives":[{
			"attributes":{
				"POSITION":10,
				"NORMAL":11
			},
			"indices":9,
			"material":2
		}]
	}],
	"accessors":[{
		"bufferView":0,
		"type":"SCALAR",
		"componentType":5123,
		"count":6276,
		"byteOffset":0,
		"min":[0],
		"max":[1314]
	},
	{
		"bufferView":1,
		"type":"VEC3",
		"componentType":5126,
		"count":1315,
		"byteOffset":0,
		"min":[-5.86191987991333,
		-5.3290705182007517e-15,
		-5.041158199310303],
		"max":[5.861926078796387,
		15.399999618530274,
		3.2411582469940187]
	},
	{
		"bufferView":1,
		"type":"VEC3",
		"componentType":5126,
		"count":1315,
		"byteOffset":12,
		"min":[-1.0,
		-1.0,
		-1.0],
		"max":[1.0,
		1.0,
		1.0]
	},
	{
		"bufferView":2,
		"type":"SCALAR",
		"componentType":5123,
		"count":288,
		"byteOffset":0,
		"min":[0],
		"max":[97]
	},
	{
		"bufferView":3,
		"type":"VEC3",
		"componentType":5126,
		"count":98,
		"byteOffset":0,
		"min":[-0.20000000298023225,
		-4.0,
		-0.20000000298023225],
		"max":[0.20000000298023225,
		4.0,
		0.20000000298023225]
	},
	{
		"bufferView":3,
		"type":"VEC3",
		"componentType":5126,
		"count":98,
		"byteOffset":12,
		"min":[-0.9990384578704834,
		-1.0,
		-0.9990384578704834],
		"max":[0.9990384578704834,
		1.0,
		0.9990384578704834]
	},
	{
		"bufferView":4,
		"type":"SCALAR",
		"componentType":5123,
		"count":1152,
		"byteOffset":0,
		"min":[0],
		"max":[193]
	},
	{
		"bufferView":5,
		"type":"VEC3",
		"componentType":5126,
		"count":194,
		"byteOffset":0,
		"min":[-1.2000000476837159,
		-0.20000000298023225,
		-1.2000000476837159],
		"max":[1.2000000476837159,
		0.20000000298023225,
		1.2000000476837159]
	},
	{
		"bufferView":5,
		"type":"VEC3",
		"componentType":5126,
		"count":194,
		"byteOffset":12,
		"min":[-0.991439700126648,
		-1.0,
		-0.991439700126648],
		"max":[0.991439700126648,
		1.0,
		0.991439700126648]
	},
	{
		"bufferView":6,
		"type":"SCALAR",
		"componentType":5123,
		"count":1152,
		"byteOffset":0,
		"min":[0],
		"max":[391]
	},
	{
		"bufferView":7,
		"type":"VEC3",
		"componentType":5126,
		"count":392,
		"byteOffset":0,
		"min":[-2.0,
		-4.599999904632568,
		-2.0],
		"max":[2.0,
		2.6645352591003758e-15,
		2.0]
	},
	{
		"bufferView":7,
		"type":"VEC3",
		"componentType":5126,
		"count":392,
		"byteOffset":12,
		"min":[-0.9990384578704834,
		-1.0,
		-0.9990384578704834],
		"max":[0.9990384578704834,
		1.0,
		0.9990384578704834]
	}],
	"bufferViews":[{
		"buffer":0,
		"byteOffset":0,
		"byteLength":12552,
		"target":34963
	},
	{
		"buffer":0,
		"byteOffset":12552,
		"byteLength":31560,
		"target":34962,
		"byteStride":24
	},
	{
		"buffer":1,
		"byteOffset":0,
		"byteLength":576,
		"target":34963
	},
	{
		"buffer":1,
		"byteOffset":576,
		"byteLength":2352,
		"target":34962,
		"byteStride":24
	},
	{
		"buffer":2,
		"byteOffset":0,
		"byteLength":2304,
		"target":34963
	},
	{
		"buffer":2,
		"byteOffset":2304,
		"byteLength":4656,
		"target":34962,
		"byteStride":24
	},
	{
		"buffer":3,
		"byteOffset":0,
		"byteLength":2304,
		"target":34963
	},
	{
		"buffer":3,
		"byteOffset":2304,
		"byteLength":9408,
		"target":34962,
		"byteStride":24
	}],
	"buffers":[{
		"uri":"data:application/octet-stream;base64,",
		"byteLength":44112
	},
	{
		"uri":"data:application/octet-stream;base64,",
		"byteLength":2928
	},
	{
		"uri":"data:application/octet-stream;base64,",
		"byteLength":6960
	},
	{
		"uri":"data:application/octet-stream;base64,",
		"byteLength":11712
	}],
	"materials":[{
		"pbrMetallicRoughness":{
			"baseColorFactor":[0.99,
			0.99,
			0.99,
			1.0],
			"metallicFactor":1.0,
			"roughnessFactor":0.22
		},
		"emissiveFactor":[0.0,
		0.0,
		0.0],
		"alphaMode":"OPAQUE",
		"doubleSided":false,
		"name":"wit"
	},
	{
		"pbrMetallicRoughness":{
			"baseColorFactor":[0.016600000000000019,
			0.21995000000000004,
			0.8300000000000001,
			1.0],
			"metallicFactor":1.0,
			"roughnessFactor":0.22
		},
		"emissiveFactor":[0.0,
		0.0,
		0.0],
		"alphaMode":"OPAQUE",
		"doubleSided":false,
		"name":"blauw"
	},
	{
		"pbrMetallicRoughness":{
			"baseColorFactor":[0.87,
			0.8212800000000002,
			0.13920000000000003,
			1.0],
			"metallicFactor":1.0,
			"roughnessFactor":0.22
		},
		"emissiveFactor":[0.0,
		0.0,
		0.0],
		"alphaMode":"OPAQUE",
		"doubleSided":false,
		"name":"geel"
	}]
}